<?xml version="1.0" encoding="UTF-8"?>
<svg width="196px" height="40px" viewBox="0 0 196 40" version="1.1" xmlns="http://www.w3.org/2000/svg" xmlns:xlink="http://www.w3.org/1999/xlink">
    <title>meinereifen-logo</title>
    <g id="meinereifen-logo" stroke="none" stroke-width="1" fill="none" fill-rule="evenodd">
        <g id="Logo_MeineReifen-MeineVorteile" fill-rule="nonzero">
            <rect id="Rectangle" fill="#E31F21" x="0" y="18.5094049" width="196" height="2.83149475"></rect>
            <path d="M161.03654,13.5528215 L165.51906,13.5528215 L165.51906,9.30068733 L161.03654,9.30068733 L161.03654,13.5528215 Z M174.52036,4.10048186 L174.55466,4.10048186 L175.99134,8.69407822 L173.0827,8.69407822 L174.52036,4.10048186 Z M171.57742,0 L166.37558,13.5528215 L171.50882,13.5528215 L172.02234,11.9961842 L177.05366,11.9961842 L177.56718,13.5528215 L182.70042,13.5528215 L177.49662,0 L171.57644,0 L171.57742,0 Z M182.23688,0 L182.23688,3.41657902 L186.70274,3.41657902 L186.70274,13.5528215 L191.52826,13.5528215 L191.52826,3.41657902 L195.99412,3.41657902 L195.99412,0 L182.23688,0 L182.23688,0 Z" id="Shape" fill="#000000"></path>
            <path d="M143.36028,13.5528215 L147.98,13.5528215 L147.98,5.96042365 L148.0143,5.96042365 L153.14754,13.5528215 L158.43464,13.5528215 L158.43464,0 L153.81492,0 L153.81492,7.51608248 L153.76298,7.51608248 L148.87082,0 L143.36028,0 L143.36028,13.5528215 Z M128.6103,13.5528215 L141.59726,13.5528215 L141.59726,10.2497371 L133.43582,10.2497371 L133.43582,8.42795294 L141.01514,8.42795294 L141.01514,5.12486853 L133.43582,5.12486853 L133.43582,3.30210601 L141.59726,3.30210601 L141.59726,0 L128.6103,0 L128.6103,13.5528215 Z M114.81974,13.5528215 L119.64526,13.5528215 L119.64526,8.67451019 L126.5915,8.67451019 L126.5915,5.37142578 L119.64526,5.37142578 L119.64526,3.30210601 L127.19126,3.30210601 L127.19126,0 L114.82072,0 L114.82072,13.5528215 L114.81974,13.5528215 Z M107.40996,13.5528215 L112.23548,13.5528215 L112.23548,0 L107.40996,0 L107.40996,13.5528215 Z M92.60902,13.5528215 L105.59696,13.5528215 L105.59696,10.2497371 L97.43552,10.2497371 L97.43552,8.42795294 L105.01582,8.42795294 L105.01582,5.12486853 L97.43552,5.12486853 L97.43552,3.30210601 L105.59696,3.30210601 L105.59696,0 L92.60902,0 L92.60902,13.5528215 Z M80.80296,3.41657902 L84.15652,3.41657902 C84.96012,3.41657902 85.5589,3.64454663 85.5589,4.68850133 C85.5589,5.54264609 85.18258,5.96042365 84.22414,5.96042365 L80.80198,5.96042365 L80.80198,3.41755742 L80.80296,3.41657902 Z M75.97744,13.5528215 L80.80296,13.5528215 L80.80296,9.37700267 L84.22512,9.37700267 C85.11496,9.37700267 85.42268,9.98459017 85.47364,10.9903872 C85.5589,12.5656141 85.54224,13.1546119 85.7304,13.5528215 L91.00084,13.5528215 C90.67548,13.1164543 90.45302,12.5656141 90.40206,11.9580266 L90.19626,8.99738278 C90.111,7.8017758 89.54554,7.13744099 88.81054,6.90947338 L88.81054,6.87131571 C90.23056,6.41635888 90.69214,5.06812122 90.69214,3.77760928 C90.69214,2.27771935 89.9395,1.00579703 89.033,0.493114497 C88.3666,0.133062642 87.5287,0 86.142,0 L75.97744,0 L75.97744,13.5528215 Z" id="Shape" fill="#E31F21"></path>
            <path d="M12.08732,0 L10.08518,7.87711274 L10.05088,7.87711274 L8.04874,0 L1.25538,0 L1.25538,13.5528215 L5.63598,13.5528215 L5.63598,3.87251425 L5.67028,3.87251425 L8.2369,13.5528215 L11.89818,13.5528215 L14.4648,3.87251425 L14.4991,3.87251425 L14.4991,13.5528215 L18.8797,13.5528215 L18.8797,0 L12.08732,0 Z M21.413,0 L21.413,13.5528215 L34.39996,13.5528215 L34.39996,10.2497371 L26.23852,10.2497371 L26.23852,8.42697454 L33.81882,8.42697454 L33.81882,5.12389013 L26.23852,5.12389013 L26.23852,3.30210601 L34.39996,3.30210601 L34.39996,0 L21.413,0 Z M36.21394,13.5528215 L41.03946,13.5528215 L41.03946,0 L36.21394,0 L36.21394,13.5528215 Z M54.0764,0 L54.0764,7.51608248 L54.02446,7.51608248 L49.13132,0 L43.62176,0 L43.62176,13.5528215 L48.24148,13.5528215 L48.24148,5.96042365 L48.27578,5.96042365 L53.40902,13.5528215 L58.69612,13.5528215 L58.69612,0 L54.0764,0 L54.0764,0 Z M61.22844,0 L61.22844,13.5528215 L74.2154,13.5528215 L74.2154,10.2497371 L66.05396,10.2497371 L66.05396,8.42697454 L73.63426,8.42697454 L73.63426,5.12389013 L66.05396,5.12389013 L66.05396,3.30210601 L74.2154,3.30210601 L74.2154,0 L61.22844,0 Z" id="Shape" fill="#000000"></path>
            <path d="M61.22844,39.5558056 L74.21638,39.5558056 L74.21638,36.2527212 L66.05494,36.2527212 L66.05494,34.4309371 L73.63524,34.4309371 L73.63524,31.1278527 L66.05494,31.1278527 L66.05494,29.3050901 L74.21638,29.3050901 L74.21638,26.0029841 L61.22844,26.0029841 L61.22844,39.5558056 L61.22844,39.5558056 Z M43.62176,39.5558056 L48.24148,39.5558056 L48.24148,31.9634078 L48.27578,31.9634078 L53.40902,39.5558056 L58.69612,39.5558056 L58.69612,26.0029841 L54.0764,26.0029841 L54.0764,33.5190666 L54.02446,33.5190666 L49.13034,26.0029841 L43.62078,26.0029841 L43.62078,39.5558056 L43.62176,39.5558056 Z M36.21198,39.5558056 L41.0375,39.5558056 L41.0375,26.0029841 L36.21198,26.0029841 L36.21198,39.5558056 L36.21198,39.5558056 Z M21.41104,39.5558056 L34.398,39.5558056 L34.398,36.2527212 L26.23656,36.2527212 L26.23656,34.4309371 L33.81686,34.4309371 L33.81686,31.1278527 L26.23656,31.1278527 L26.23656,29.3050901 L34.398,29.3050901 L34.398,26.0029841 L21.41104,26.0029841 L21.41104,39.5558056 L21.41104,39.5558056 Z M1.2544,39.5558056 L5.635,39.5558056 L5.635,29.8754984 L5.6693,29.8754984 L8.23592,39.5558056 L11.8972,39.5558056 L14.46382,29.8754984 L14.49812,29.8754984 L14.49812,39.5558056 L18.87872,39.5558056 L18.87872,26.0029841 L12.08634,26.0029841 L10.0842,33.8800969 L10.0499,33.8800969 L8.04776,26.0029841 L1.25538,26.0029841 L1.25538,39.5558056 L1.2544,39.5558056 Z" id="Shape" fill="#E31F21"></path>
            <path d="M191.44986,39.5264535 L195.92356,39.5264535 L195.92356,35.2841034 L191.44986,35.2841034 L191.44986,39.5264535 Z M191.8595,34.3174425 L195.47864,34.3174425 L195.99118,26.0029841 L191.38126,26.0029841 L191.8595,34.3174425 L191.8595,34.3174425 Z M176.62932,39.5264535 L189.58884,39.5264535 L189.58884,36.2311963 L181.44406,36.2311963 L181.44406,34.4133258 L189.0077,34.4133258 L189.0077,31.1170902 L181.44406,31.1170902 L181.44406,29.2992197 L189.58884,29.2992197 L189.58884,26.0039625 L176.62932,26.0039625 L176.62932,39.5274319 L176.62932,39.5264535 Z M162.83386,39.5264535 L175.11032,39.5264535 L175.11032,35.8897341 L167.6486,35.8897341 L167.6486,26.0029841 L162.83386,26.0029841 L162.83386,39.5264535 L162.83386,39.5264535 Z M155.40644,39.5264535 L160.22118,39.5264535 L160.22118,26.0029841 L155.40644,26.0029841 L155.40644,39.5264535 Z M140.60354,39.5264535 L153.56306,39.5264535 L153.56306,36.2311963 L145.41828,36.2311963 L145.41828,34.4133258 L152.98192,34.4133258 L152.98192,31.1170902 L145.41828,31.1170902 L145.41828,29.2992197 L153.56306,29.2992197 L153.56306,26.0039625 L140.60354,26.0039625 L140.60354,39.5274319 L140.60354,39.5264535 Z M130.01758,39.5264535 L134.83232,39.5264535 L134.83232,29.4127143 L139.28838,29.4127143 L139.28838,26.0039625 L125.56054,26.0039625 L125.56054,29.4127143 L130.0166,29.4127143 L130.0166,39.5264535 L130.01758,39.5264535 Z M114.99222,29.4127143 L118.33892,29.4127143 C119.14154,29.4127143 119.73836,29.6582932 119.73836,30.6817014 C119.73836,31.5338894 119.34538,31.9506886 118.40654,31.9506886 L114.99222,31.9506886 L114.99222,29.4127143 L114.99222,29.4127143 Z M110.17748,39.5264535 L114.99222,39.5264535 L114.99222,35.3594404 L118.40654,35.3594404 C119.29442,35.3594404 119.60214,35.9660495 119.6531,36.9689113 C119.73836,38.5412029 119.73836,39.128244 119.90888,39.5254751 L125.16756,39.5254751 C124.85984,39.108676 124.62072,38.5402245 124.56976,37.9345938 L124.36494,34.9798205 C124.27968,33.8057383 123.69952,33.1237923 122.98118,32.8968031 L122.98118,32.8586454 C124.3816,32.404667 124.85984,31.0407749 124.85984,29.7717878 C124.85984,28.2944011 124.10818,26.9882347 123.20364,26.4951202 C122.53822,26.1350684 121.7013,26.0029841 120.31852,26.0029841 L110.1765,26.0029841 L110.1765,39.5264535 L110.17748,39.5264535 Z M96.72306,32.7647188 C96.72306,30.018345 97.96962,28.9391679 99.93256,28.9391679 C101.8955,28.9391679 103.14206,30.018345 103.14206,32.7647188 C103.14206,35.5110926 101.8955,36.5902698 99.93256,36.5902698 C97.96962,36.5902698 96.72306,35.5110926 96.72306,32.7647188 M91.6006,32.7647188 C91.6006,39.7720324 97.01314,40 99.93256,40 C102.85198,40 108.26452,39.7730108 108.26452,32.7647188 C108.26452,25.7564269 102.85198,25.5294377 99.93256,25.5294377 C97.01314,25.5294377 91.6006,25.7564269 91.6006,32.7647188 M81.06658,39.5264535 L86.12044,39.5264535 L91.58394,26.0029841 L86.29096,26.0029841 L83.60968,34.6774943 L83.57538,34.6774943 L80.8941,26.0029841 L75.60112,26.0029841 L81.06462,39.5264535 L81.06658,39.5264535 Z" id="Shape" fill="#000000"></path>
        </g>
    </g>
</svg>